<svg width="64" height="64" viewBox="0 0 64 64" fill="none" xmlns="http://www.w3.org/2000/svg">
<g clip-path="url(#clip0_2_22089)">
<path d="M46.8046 10.2496H60.2499C61.6249 10.2496 62.7499 11.3748 62.7499 12.7496V50.2496C62.7499 51.6246 61.6249 52.7496 60.2499 52.7496H3.74999C2.375 52.7496 1.25 51.6247 1.25 50.2496V12.7495C1.25 11.3745 2.375 10.2495 3.74999 10.2495H17.2188" stroke="#062D77" stroke-width="1.5" stroke-miterlimit="22.9256" stroke-linecap="round" stroke-linejoin="round"/>
<path d="M22 62.75H42" stroke="#062D77" stroke-width="1.5" stroke-miterlimit="22.9256" stroke-linecap="round" stroke-linejoin="round"/>
<path d="M24.5098 62.7139L27.17 52.7856" stroke="#062D77" stroke-width="1.5" stroke-miterlimit="22.9256" stroke-linecap="round" stroke-linejoin="round"/>
<path d="M39.4903 62.7139L36.8301 52.7856" stroke="#062D77" stroke-width="1.5" stroke-miterlimit="22.9256" stroke-linecap="round" stroke-linejoin="round"/>
<path d="M2.5 47.7495H26.3745M37.6245 47.7495H61.4999" stroke="#0055D2" stroke-width="1.5" stroke-miterlimit="22.9256" stroke-linecap="round" stroke-linejoin="round"/>
<path d="M37.6243 42.1245H56.9998" stroke="#0055D2" stroke-width="1.5" stroke-miterlimit="22.9256" stroke-linecap="round" stroke-linejoin="round"/>
<path d="M7 42.1245H26.3745" stroke="#0055D2" stroke-width="1.5" stroke-miterlimit="22.9256" stroke-linecap="round" stroke-linejoin="round"/>
<path d="M44.8122 36.4995H56.9999" stroke="#0055D2" stroke-width="1.5" stroke-miterlimit="22.9256" stroke-linecap="round" stroke-linejoin="round"/>
<path d="M7 36.4995H19.1872" stroke="#0055D2" stroke-width="1.5" stroke-miterlimit="22.9256" stroke-linecap="round" stroke-linejoin="round"/>
<path d="M7 30.8745H13.0936" stroke="#0055D2" stroke-width="1.5" stroke-miterlimit="22.9256" stroke-linecap="round" stroke-linejoin="round"/>
<path d="M39.2423 32.0466C36.9924 33.1669 34.5133 33.7499 31.9999 33.7499C23.0253 33.7499 15.75 26.4745 15.75 17.4999C15.75 8.52535 23.0253 1.25 31.9999 1.25C40.9745 1.25 48.2499 8.52535 48.2499 17.4999C48.2499 21.3123 46.9095 25.0033 44.4631 27.9273" stroke="#062D77" stroke-width="1.5" stroke-miterlimit="22.9256" stroke-linecap="round" stroke-linejoin="round"/>
<path d="M25.125 14.6455C26.2728 10.2457 32.2828 13.439 29.2118 16.8515C27.8976 18.3116 25.581 20.7994 25.125 22.5H30.125" stroke="#0055D2" stroke-width="1.5" stroke-miterlimit="22.9256" stroke-linecap="round" stroke-linejoin="round"/>
<path d="M38.2507 18.1246H33.875L34.4994 12.5M38.8751 12.5V22.5" stroke="#0055D2" stroke-width="1.5" stroke-miterlimit="22.9256" stroke-linecap="round" stroke-linejoin="round"/>
<path d="M47.2043 28.473L43.4902 28.9905L42.9727 25.2764" stroke="#062D77" stroke-width="1.5" stroke-miterlimit="22.9256" stroke-linecap="round" stroke-linejoin="round"/>
<path d="M31.999 47.7495H31.9998" stroke="#0055D2" stroke-width="1.5" stroke-miterlimit="2.6131" stroke-linecap="round" stroke-linejoin="round"/>
</g>
<defs>
<clipPath id="clip0_2_22089">
<rect width="64" height="64" fill="white"/>
</clipPath>
</defs>
</svg>
