<svg width="64" height="64" viewBox="0 0 64 64" fill="none" xmlns="http://www.w3.org/2000/svg">
<g clip-path="url(#clip0_2_22286)">
<path d="M0.9375 11.2466V23.8326C0.9375 24.2201 1.25163 24.5343 1.63912 24.5343H6.57225C6.01437 25.3256 5.71075 26.3104 5.78487 27.3694C5.93562 29.5251 7.67813 31.2701 9.82738 31.4165C12.372 31.5899 14.4899 29.5706 14.4899 27.055C14.4899 26.116 14.1937 25.2468 13.6915 24.5343H23.7575C24.145 24.5343 24.4591 24.2201 24.4591 23.8326V17.7191C24.4591 17.2569 24.0204 16.9226 23.5741 17.0429C23.214 17.1399 22.8355 17.1917 22.4449 17.1917C19.9391 17.1917 17.9274 15.0703 18.0969 12.52C18.2416 10.3424 20.0111 8.58387 22.1829 8.45562C22.6637 8.42725 23.1286 8.47763 23.5665 8.59463C24.0157 8.71475 24.4592 8.39 24.4592 7.925V1.63912C24.4592 1.25163 24.1451 0.9375 23.7576 0.9375H3.65862C2.15575 0.9375 0.9375 2.15962 0.9375 3.66725V7.50313" stroke="#0055D2" stroke-width="1.5" stroke-miterlimit="10" stroke-linecap="round" stroke-linejoin="round"/>
<path d="M37.6628 58.9604C35.5819 58.9604 33.9214 57.1541 34.1547 55.0191C34.3337 53.3797 35.6563 52.0649 37.2917 51.8968C38.122 51.8114 38.9005 52.0164 39.541 52.4212V39.4658H29.9373C29.4397 39.4658 29.11 39.9656 29.287 40.4306C29.5059 41.0056 29.6072 41.6387 29.5609 42.3009C29.4102 44.4567 27.6677 46.2017 25.5184 46.3481C22.9738 46.5216 20.8559 44.5022 20.8559 41.9866C20.8559 41.4366 20.9575 40.9106 21.1425 40.4259C21.3193 39.9631 20.9867 39.4658 20.491 39.4658H16.7212C16.3337 39.4658 16.0195 39.7799 16.0195 40.1674V60.3328C16.0195 61.8404 17.2378 63.0626 18.7407 63.0626H39.541V58.4169C38.997 58.7607 38.3533 58.9604 37.6628 58.9604Z" stroke="#062D77" stroke-width="1.5" stroke-miterlimit="10" stroke-linecap="round" stroke-linejoin="round"/>
<path d="M63.0624 51.3303V39.4657H55.8642C56.4758 38.5728 56.8344 37.4918 56.8346 36.3266C56.8346 33.2618 54.3086 30.7501 51.2538 30.7761C48.2202 30.802 45.7689 33.277 45.7689 36.3265C45.7689 37.4918 46.1277 38.5727 46.7393 39.4657H39.5411V52.4211C38.9006 52.0163 38.1221 51.8115 37.2917 51.8967C35.6563 52.0647 34.3338 53.3795 34.1547 55.019C33.9216 57.154 35.5819 58.9603 37.6628 58.9603C38.3533 58.9603 38.9969 58.7607 39.5411 58.417V63.0623H60.3414C61.8442 63.0623 63.0626 61.8402 63.0626 60.3326V55.0717" stroke="#062D77" stroke-width="1.5" stroke-miterlimit="10" stroke-linecap="round" stroke-linejoin="round"/>
<path d="M39.5409 16.5706V23.8746C38.8664 23.5211 38.0889 23.3384 37.2646 23.3871C35.0928 23.5154 33.3233 25.2739 33.1786 27.4515C33.0091 30.0018 35.0208 32.1233 37.5266 32.1233C38.2534 32.1233 38.9383 31.9438 39.5408 31.628V39.4659H46.7391C46.1274 38.573 45.7687 37.4921 45.7687 36.3268C45.7686 33.262 48.2947 30.7503 51.3496 30.7763C54.3832 30.8021 56.8344 33.2773 56.8344 36.3266C56.8344 37.492 56.4758 38.5729 55.8641 39.4659H63.0624V18.5989C63.0624 17.0913 61.8442 15.8691 60.3413 15.8691H40.2426C39.8551 15.869 39.5409 16.1831 39.5409 16.5706Z" stroke="#062D77" stroke-width="1.5" stroke-miterlimit="10" stroke-linecap="round" stroke-linejoin="round"/>
<path d="M35.1251 18.4584V14.1331L41.1225 8.13574H54.5001" stroke="#0055D2" stroke-width="1.5" stroke-miterlimit="10" stroke-linecap="round" stroke-linejoin="round"/>
<path d="M56.9536 10.522C58.2717 10.522 59.3401 9.45355 59.3401 8.13552C59.3401 6.8175 58.2717 5.74902 56.9536 5.74902C55.6356 5.74902 54.5671 6.8175 54.5671 8.13552C54.5671 9.45355 55.6356 10.522 56.9536 10.522Z" stroke="#0055D2" stroke-width="1.5" stroke-miterlimit="10" stroke-linecap="round" stroke-linejoin="round"/>
<path d="M30.8639 19.9585V5.7085" stroke="#062D77" stroke-width="1.5" stroke-miterlimit="10" stroke-linecap="round" stroke-linejoin="round"/>
<path d="M30.864 5.7105C32.1821 5.7105 33.2505 4.64203 33.2505 3.324C33.2505 2.00597 32.1821 0.9375 30.864 0.9375C29.546 0.9375 28.4775 2.00597 28.4775 3.324C28.4775 4.64203 29.546 5.7105 30.864 5.7105Z" stroke="#062D77" stroke-width="1.5" stroke-miterlimit="10" stroke-linecap="round" stroke-linejoin="round"/>
<path d="M25.125 41V36L22 32.875" stroke="#0055D2" stroke-width="1.5" stroke-miterlimit="10" stroke-linecap="round" stroke-linejoin="round"/>
<path d="M20.313 33.5738C21.631 33.5738 22.6995 32.5053 22.6995 31.1873C22.6995 29.8693 21.631 28.8008 20.313 28.8008C18.995 28.8008 17.9265 29.8693 17.9265 31.1873C17.9265 32.5053 18.995 33.5738 20.313 33.5738Z" stroke="#0055D2" stroke-width="1.5" stroke-miterlimit="10" stroke-linecap="round" stroke-linejoin="round"/>
</g>
<defs>
<clipPath id="clip0_2_22286">
<rect width="64" height="64" fill="white"/>
</clipPath>
</defs>
</svg>
