<svg width="73" height="73" viewBox="0 0 73 73" fill="none" xmlns="http://www.w3.org/2000/svg">
<path d="M63.75 29.4394H41.25C37.5375 29.4394 34.5 32.4769 34.5 36.1894V38.4394H23.9925L13.8 30.7894C11.73 29.2369 9.03 29.0119 6.735 30.1594C4.44 31.3069 3 33.6244 3 36.1894V38.4394C3 39.1594 3.36 39.8569 3.945 40.2619L17.985 50.2969L14.115 56.5744C11.0325 57.2044 8.6925 59.9269 8.6925 63.1894C8.6925 66.9019 11.73 69.9394 15.4425 69.9394C19.155 69.9394 22.1925 66.9019 22.1925 63.1894C22.1925 62.4019 22.035 61.6369 21.7875 60.9394H57.4275C57.18 61.6369 57.0225 62.4019 57.0225 63.1894C57.0225 66.9019 60.06 69.9394 63.7725 69.9394C67.485 69.9394 70.5225 66.9019 70.5225 63.1894C70.5225 60.2644 68.6325 57.7894 66.0225 56.8444V51.9394H68.2725C69.51 51.9394 70.5225 50.9269 70.5225 49.6894V36.1894C70.5225 32.4769 67.485 29.4394 63.7725 29.4394H63.75ZM39 36.1894C39 34.9519 40.0125 33.9394 41.25 33.9394H63.75C64.9875 33.9394 66 34.9519 66 36.1894V38.4394H39V36.1894ZM61.5 56.4394H19.47L22.2375 51.9394H61.4775V56.4394H61.5Z" fill="url(#paint0_linear_2_22343)"/>
<path d="M25.5 31.6895C33.555 31.6895 40.125 25.1195 40.125 17.0645C40.125 9.00945 33.555 2.43945 25.5 2.43945C17.445 2.43945 10.875 9.00945 10.875 17.0645C10.875 25.1195 17.445 31.6895 25.5 31.6895ZM19.47 14.8145H23.25V11.0345C23.25 9.79695 24.2625 8.78445 25.5 8.78445C26.7375 8.78445 27.75 9.79695 27.75 11.0345V14.8145H31.53C32.7675 14.8145 33.78 15.827 33.78 17.0645C33.78 18.302 32.7675 19.3145 31.53 19.3145H27.75V23.0945C27.75 24.332 26.7375 25.3445 25.5 25.3445C24.2625 25.3445 23.25 24.332 23.25 23.0945V19.3145H19.47C18.2325 19.3145 17.22 18.302 17.22 17.0645C17.22 15.827 18.2325 14.8145 19.47 14.8145Z" fill="url(#paint1_linear_2_22343)"/>
<defs>
<linearGradient id="paint0_linear_2_22343" x1="6.20517" y1="58.1627" x2="28.1693" y2="21.0933" gradientUnits="userSpaceOnUse">
<stop stop-color="#062D77"/>
<stop offset="1" stop-color="#0055CA"/>
</linearGradient>
<linearGradient id="paint1_linear_2_22343" x1="12.2634" y1="23.1846" x2="30.3465" y2="4.87796" gradientUnits="userSpaceOnUse">
<stop stop-color="#062D77"/>
<stop offset="1" stop-color="#0055CA"/>
</linearGradient>
</defs>
</svg>
