<svg width="64" height="64" viewBox="0 0 64 64" fill="none" xmlns="http://www.w3.org/2000/svg">
<g clip-path="url(#clip0_2_22203)">
<mask id="mask0_2_22203" style="mask-type:luminance" maskUnits="userSpaceOnUse" x="0" y="0" width="65" height="65">
<path d="M64.0011 0.000976562H0.00109863V64.001H64.0011V0.000976562Z" fill="white"/>
</mask>
<g mask="url(#mask0_2_22203)">
<mask id="mask1_2_22203" style="mask-type:luminance" maskUnits="userSpaceOnUse" x="0" y="0" width="65" height="65">
<path d="M0.00256348 0.00195694H64.0026V64.002H0.00256348V0.00195694Z" fill="white"/>
</mask>
<g mask="url(#mask1_2_22203)">
<path d="M47.0968 49.7622C47.1464 48.2294 45.9066 46.9565 44.3813 46.9565H44.3758V46.9555C44.4494 46.9555 44.5246 46.9554 44.6024 46.9554C46.0831 46.9544 47.2824 45.7526 47.2815 44.2722C47.2803 42.7912 46.0789 41.5997 44.5984 41.6009H33.4435C33.1326 41.6009 32.9125 41.2971 33.0093 41.0017L33.9869 38.0174C34.819 35.4776 34.671 33.748 34.671 30.7734C34.671 29.0236 33.2525 27.6051 31.5028 27.6051C29.9133 27.6051 28.5699 28.7829 28.3618 30.3586C28.1314 32.1021 27.9764 35.2024 25.094 37.9779L23.0598 39.9366C21.9264 41.0279 20.4144 41.6374 18.8413 41.6374H16.794V59.2236C17.5208 59.2234 18.3565 59.2231 18.3576 59.2231C22.2415 59.2206 21.8865 63.067 26.7166 63.0625H43.1564C44.6353 63.0625 45.8341 61.8637 45.8341 60.3847V60.3846C45.8341 58.9057 44.6353 57.7069 43.1564 57.7069H43.628C45.0834 57.7069 46.3259 56.5752 46.3744 55.1207C46.425 53.6 45.2074 52.3512 43.6981 52.3512H44.3494C45.806 52.3512 47.0498 51.2181 47.0968 49.7622Z" stroke="#062D77" stroke-width="1.5" stroke-miterlimit="10" stroke-linecap="round" stroke-linejoin="round"/>
<path d="M43.4016 57.708H40.1168" stroke="#062D77" stroke-width="1.5" stroke-miterlimit="10" stroke-linecap="round" stroke-linejoin="round"/>
<path d="M43.4717 52.3525H40.1168" stroke="#062D77" stroke-width="1.5" stroke-miterlimit="10" stroke-linecap="round" stroke-linejoin="round"/>
<path d="M44.3762 46.9561H40.1171" stroke="#062D77" stroke-width="1.5" stroke-miterlimit="10" stroke-linecap="round" stroke-linejoin="round"/>
<path d="M59.9341 15.4473C60.3046 15.0861 60.1002 14.4567 59.588 14.3823L55.6323 13.8074C55.429 13.7779 55.2532 13.6502 55.1623 13.4659L53.3932 9.88155C53.1642 9.41743 52.5025 9.41743 52.2735 9.88155L50.5045 13.4659C50.4135 13.6502 50.2377 13.7779 50.0344 13.8074L46.0787 14.3823C45.5666 14.4567 45.3621 15.0861 45.7327 15.4473L48.595 18.2373C48.7421 18.3808 48.8093 18.5874 48.7746 18.7901L48.0989 22.7297C48.0114 23.2397 48.5467 23.6287 49.0047 23.3878L52.5429 21.5278C52.7247 21.4322 52.942 21.4322 53.124 21.5278L56.662 23.3878C57.12 23.6287 57.6555 23.2397 57.5679 22.7297L56.8922 18.7901C56.8575 18.5874 56.9246 18.3808 57.0718 18.2373L59.9341 15.4473Z" stroke="#062D77" stroke-width="1.5" stroke-miterlimit="10" stroke-linecap="round" stroke-linejoin="round"/>
<path d="M18.3419 15.4473C18.7126 15.0861 18.5081 14.4567 17.9959 14.3823L14.0403 13.8074C13.8369 13.7779 13.6611 13.6502 13.5702 13.4659L11.8012 9.88155C11.5722 9.41743 10.9103 9.41743 10.6813 9.88155L8.91231 13.4659C8.82131 13.6502 8.64556 13.7779 8.44219 13.8074L4.48656 14.3823C3.97444 14.4567 3.76994 15.0861 4.14056 15.4473L7.00294 18.2373C7.15006 18.3808 7.21719 18.5874 7.18244 18.7901L6.50669 22.7297C6.41931 23.2397 6.95469 23.6287 7.41269 23.3878L10.9507 21.5278C11.1326 21.4322 11.3498 21.4322 11.5318 21.5278L15.0698 23.3878C15.5278 23.6287 16.0633 23.2397 15.9758 22.7297L15.3001 18.7901C15.2653 18.5874 15.3324 18.3808 15.4797 18.2373L18.3419 15.4473Z" stroke="#062D77" stroke-width="1.5" stroke-miterlimit="10" stroke-linecap="round" stroke-linejoin="round"/>
<path d="M12.5251 61.1479H15.4086C16.1737 61.1479 16.794 60.5277 16.794 59.7626V41.4425C16.794 40.6773 16.1737 40.057 15.4086 40.057H5.2666C4.50148 40.057 3.88123 40.6773 3.88123 41.4425V59.7626C3.88123 60.5277 4.50148 61.1479 5.2666 61.1479H8.1501" stroke="#062D77" stroke-width="1.5" stroke-miterlimit="10" stroke-linecap="round" stroke-linejoin="round"/>
<path d="M40.2003 13.7393L43.5194 10.504C44.1187 9.91997 43.7879 8.90234 42.9599 8.78197L36.5641 7.85259C36.2352 7.80484 35.9509 7.59834 35.8039 7.30034L32.9434 1.50472C32.5732 0.754341 31.5032 0.754341 31.1329 1.50472L28.2726 7.30034C28.1254 7.59834 27.8413 7.80484 27.5124 7.85259L21.1166 8.78197C20.2884 8.90234 19.9578 9.91997 20.5571 10.504L25.1851 15.0153C25.4231 15.2472 25.5317 15.5813 25.4754 15.9088L24.3829 22.279C24.2414 23.1037 25.1071 23.7326 25.8478 23.3432L31.5684 20.3357C31.8626 20.1811 32.2138 20.1811 32.5079 20.3357L38.2287 23.3432C38.9693 23.7326 39.8349 23.1037 39.6934 22.279L38.9792 18.1143" stroke="#0055D2" stroke-width="1.5" stroke-miterlimit="10" stroke-linecap="round" stroke-linejoin="round"/>
</g>
</g>
</g>
<defs>
<clipPath id="clip0_2_22203">
<rect width="64" height="64" fill="white"/>
</clipPath>
</defs>
</svg>
