<svg width="64" height="64" viewBox="0 0 64 64" fill="none" xmlns="http://www.w3.org/2000/svg">
<g clip-path="url(#clip0_2_22233)">
<path d="M41.318 47.7714C41.318 47.7714 40.5265 50.4494 37.812 49.7844C35.0975 49.1194 28.6685 47.5713 28.6685 47.5713" stroke="#062D77" stroke-width="1.5" stroke-miterlimit="10" stroke-linecap="round" stroke-linejoin="round"/>
<path d="M41.318 47.7714C41.318 47.7714 40.5265 50.4494 37.812 49.7844C35.0975 49.1194 28.6685 47.5713 28.6685 47.5713" stroke="#062D77" stroke-width="1.5" stroke-miterlimit="10" stroke-linecap="round" stroke-linejoin="round"/>
<path d="M31.5251 13.652C31.0217 12.8791 30.1619 12.4131 29.2397 12.4131C28.1474 12.4131 20.0269 12.4131 18.9347 12.4131C18.0124 12.4131 17.1527 12.8792 16.6493 13.652L13 19.255C13.4808 19.255 34.6936 19.255 35.1743 19.255L31.5251 13.652Z" stroke="#0055D2" stroke-width="1.5" stroke-miterlimit="10" stroke-linecap="round" stroke-linejoin="round"/>
<path d="M13 19.2544L22.6747 31.6154C23.3929 32.5329 24.7815 32.5329 25.4996 31.6154L35.1743 19.2544C34.6936 19.2544 13.4806 19.2544 13 19.2544Z" stroke="#0055D2" stroke-width="1.5" stroke-miterlimit="10" stroke-linecap="round" stroke-linejoin="round"/>
<path d="M22.6748 31.6154C23.3929 32.5329 24.7816 32.5329 25.4997 31.6154L25.5707 31.5248L28.5719 19.2544C25.7383 19.2544 22.4362 19.2544 19.6027 19.2544L22.6038 31.5248L22.6748 31.6154Z" stroke="#0055D2" stroke-width="1.5" stroke-miterlimit="10" stroke-linecap="round" stroke-linejoin="round"/>
<path d="M21.7027 12.4131L19.6027 19.255C22.4362 19.255 25.7383 19.255 28.5718 19.255L26.4718 12.4131C24.9882 12.4131 23.1863 12.4131 21.7027 12.4131Z" stroke="#0055D2" stroke-width="1.5" stroke-miterlimit="10" stroke-linecap="round" stroke-linejoin="round"/>
<path d="M51.3818 26.6499C51.3818 26.6499 50.6064 25.8447 49.5628 25.8447C48.5191 25.8447 47.7587 26.6051 47.7587 27.388C47.7587 28.1709 48.7428 28.797 49.9878 29.125C51.2328 29.453 51.4962 30.0966 51.4962 30.7825C51.4962 31.4684 50.8898 32.353 49.4684 32.353C48.4884 32.353 47.8817 31.8616 47.5993 31.5564" stroke="#0055D2" stroke-width="1.5" stroke-miterlimit="10" stroke-linecap="round" stroke-linejoin="round"/>
<path d="M49.4531 24.6367V25.5115" stroke="#0055D2" stroke-width="1.5" stroke-miterlimit="10" stroke-linecap="round" stroke-linejoin="round"/>
<path d="M49.4531 32.6855V33.5603" stroke="#0055D2" stroke-width="1.5" stroke-miterlimit="10" stroke-linecap="round" stroke-linejoin="round"/>
<path d="M62.035 7.95147L63.0399 2.51009C63.2093 1.59309 62.407 0.790969 61.49 0.960219L56.0487 1.96509C54.995 2.15972 54.5919 3.45647 55.3495 4.21409L59.786 8.65059C60.5438 9.40822 61.8405 9.00509 62.035 7.95147Z" stroke="#062D77" stroke-width="1.5" stroke-miterlimit="10" stroke-linecap="round" stroke-linejoin="round"/>
<path d="M57.2251 6.77411L51.452 12.5472L45.0463 6.1416L37.904 13.2839" stroke="#062D77" stroke-width="1.5" stroke-miterlimit="10" stroke-linecap="round" stroke-linejoin="round"/>
<path d="M47.2656 21.4131C43.9156 22.3648 41.4609 25.4445 41.4609 29.0997C41.4609 33.5136 45.0391 37.0919 49.4531 37.0919C53.8671 37.0919 57.4453 33.5137 57.4453 29.0997C57.4453 25.4445 54.9907 22.3647 51.6407 21.4131" stroke="#0055D2" stroke-width="1.5" stroke-miterlimit="10" stroke-linecap="round" stroke-linejoin="round"/>
<path d="M33.1383 40.8915C29.3695 39.3852 28.3498 39.0643 26.7096 39.0383L26.7094 39.0381C19.6281 39.0617 18.345 39.1195 14.8259 40.6946C12.9847 41.5186 11.2362 42.5169 9.59809 43.6684C8.52632 44.4218 7.33706 44.9923 6.07393 45.3396L1.77526 46.5215C1.2805 46.6577 0.9375 47.1075 0.9375 47.6208V61.9213C0.9375 62.7192 1.73613 63.2703 2.48214 62.9871L17.4262 57.3134C20.7022 56.2456 24.1366 56.1376 26.8873 57.2353L32.7284 59.5672C34.0052 60.0073 36.9384 60.6924 39.982 59.1324C39.9835 59.1318 39.9845 59.1313 39.9845 59.1313C40.2684 59.0058 42.8507 57.8634 46.0887 56.4311L50.09 54.6612C55.0203 52.4803 59.9786 50.2872 60.3766 50.1112C60.994 49.7946 64.0986 47.9319 62.7076 44.7693C61.0953 41.4025 57.3846 42.994 57.073 43.1105L41.3188 47.7713C41.3188 47.7713 42.3973 44.6026 39.1312 43.2991C38.4416 43.0237 37.7987 42.7661 37.1976 42.5246" stroke="#062D77" stroke-width="1.5" stroke-miterlimit="10" stroke-linecap="round" stroke-linejoin="round"/>
</g>
<defs>
<clipPath id="clip0_2_22233">
<rect width="64" height="64" fill="white"/>
</clipPath>
</defs>
</svg>
