<svg width="64" height="64" viewBox="0 0 64 64" fill="none" xmlns="http://www.w3.org/2000/svg">
<path d="M24.1713 53.8525V40.2152C24.1713 39.6573 24.6235 39.2051 25.1814 39.2051H27.2018C27.7596 39.2051 28.2119 39.6573 28.2119 40.2152V53.8525" stroke="#0055D2" stroke-width="1.5" stroke-miterlimit="10" stroke-linecap="round" stroke-linejoin="round"/>
<path d="M14.9449 21.0813C17.1765 21.0813 18.9855 19.2722 18.9855 17.0406C18.9855 14.8091 17.1765 13 14.9449 13C12.7133 13 10.9043 14.8091 10.9043 17.0406C10.9043 19.2722 12.7133 21.0813 14.9449 21.0813Z" stroke="#062D77" stroke-width="1.5" stroke-miterlimit="10" stroke-linecap="round" stroke-linejoin="round"/>
<path d="M21.8897 29.1623V25.1217C21.8897 22.8901 20.0807 21.0811 17.8491 21.0811H12.0406C9.809 21.0811 8 22.8901 8 25.1217V29.1623C8 29.8597 8.56537 30.4251 9.26275 30.4251H20.6271C21.3244 30.4249 21.8897 29.8597 21.8897 29.1623Z" stroke="#062D77" stroke-width="1.5" stroke-miterlimit="10" stroke-linecap="round" stroke-linejoin="round"/>
<path d="M0.9375 41.8062V8.63242C0.9375 7.23742 2.06875 6.10742 3.4625 6.10742H60.5375C61.9312 6.10742 63.0625 7.23742 63.0625 8.63242V15.5774" stroke="#062D77" stroke-width="1.5" stroke-miterlimit="10" stroke-linecap="round" stroke-linejoin="round"/>
<path d="M63.0625 19.9653V55.3678C63.0625 56.7628 61.9312 57.8928 60.5375 57.8928H3.4625C2.06875 57.8928 0.9375 56.7628 0.9375 55.3678V46.1941" stroke="#062D77" stroke-width="1.5" stroke-miterlimit="10" stroke-linecap="round" stroke-linejoin="round"/>
<path d="M49.299 34.4062V44.129L56.1741 51.0041" stroke="#0055D2" stroke-width="1.5" stroke-miterlimit="10" stroke-linecap="round" stroke-linejoin="round"/>
<path d="M59.0218 44.1294H49.299" stroke="#0055D2" stroke-width="1.5" stroke-miterlimit="10" stroke-linecap="round" stroke-linejoin="round"/>
<path d="M43.29 36.485C44.9438 35.1838 47.03 34.4062 49.2988 34.4062C54.6688 34.4062 59.0213 38.76 59.0213 44.1287C59.0213 49.4987 54.6688 53.8525 49.2988 53.8525C43.9288 53.8525 39.5763 49.4987 39.5763 44.1287C39.5763 42.6087 39.9263 41.1687 40.5488 39.8862" stroke="#0055D2" stroke-width="1.5" stroke-miterlimit="10" stroke-linecap="round" stroke-linejoin="round"/>
<path d="M30.0307 19.0405H28.0105C27.4526 19.0405 27.0004 18.5883 27.0004 18.0304V16.0101C27.0004 15.4523 27.4526 15 28.0105 15H30.0309C30.5887 15 31.041 15.4523 31.041 16.0101V18.0305C31.0409 18.5883 30.5886 19.0405 30.0307 19.0405Z" stroke="#0055D2" stroke-width="1.5" stroke-miterlimit="10" stroke-linecap="round" stroke-linejoin="round"/>
<path d="M30.0307 27.1217H28.0105C27.4526 27.1217 27.0004 26.6694 27.0004 26.1116V24.0912C27.0004 23.5333 27.4526 23.0811 28.0105 23.0811H30.0309C30.5887 23.0811 31.041 23.5333 31.041 24.0912V26.1116C31.0409 26.6694 30.5886 27.1217 30.0307 27.1217Z" stroke="#062D77" stroke-width="1.5" stroke-miterlimit="10" stroke-linecap="round" stroke-linejoin="round"/>
<path d="M51.4355 15C51.9934 15 52.4457 15.4523 52.4457 16.0101V18.0305C52.4457 18.5884 51.9934 19.0406 51.4355 19.0406" stroke="#0055D2" stroke-width="1.5" stroke-miterlimit="10" stroke-linecap="round" stroke-linejoin="round"/>
<path d="M45.1221 23.0811C45.6799 23.0811 46.1322 23.5333 46.1322 24.0912V26.1116C46.1322 26.6694 45.6799 27.1217 45.1221 27.1217" stroke="#062D77" stroke-width="1.5" stroke-miterlimit="10" stroke-linecap="round" stroke-linejoin="round"/>
<path d="M56.2077 19.0405H35.8048C35.3672 19.0405 35.0125 18.5883 35.0125 18.0304V16.0101C35.0125 15.4523 35.3672 15 35.8048 15H56.2077C56.6453 15 57 15.4523 57 16.0101V18.0305C57 18.5883 56.6453 19.0405 56.2077 19.0405Z" stroke="#0055D2" stroke-width="1.5" stroke-miterlimit="10" stroke-linecap="round" stroke-linejoin="round"/>
<path d="M56.2077 27.1217H35.8048C35.3672 27.1217 35.0125 26.6694 35.0125 26.1116V24.0912C35.0125 23.5333 35.3672 23.0811 35.8048 23.0811H56.2077C56.6453 23.0811 57 23.5333 57 24.0912V26.1116C57 26.6694 56.6453 27.1217 56.2077 27.1217Z" stroke="#062D77" stroke-width="1.5" stroke-miterlimit="10" stroke-linecap="round" stroke-linejoin="round"/>
<path d="M8.00867 53.8521V42.2352C8.00867 41.6774 8.46092 41.2251 9.01879 41.2251H11.0392C11.597 41.2251 12.0493 41.6774 12.0493 42.2352V53.8521" stroke="#062D77" stroke-width="1.5" stroke-miterlimit="10" stroke-linecap="round" stroke-linejoin="round"/>
<path d="M16.0898 53.8521V46.0233C16.0898 45.4654 16.5421 45.0132 17.1 45.0132H19.1203C19.6782 45.0132 20.1305 45.4654 20.1305 46.0233V53.8521" stroke="#062D77" stroke-width="1.5" stroke-miterlimit="10" stroke-linecap="round" stroke-linejoin="round"/>
<path d="M4.97815 53.8521H31.2424" stroke="#0055D2" stroke-width="1.5" stroke-miterlimit="10" stroke-linecap="round" stroke-linejoin="round"/>
</svg>
