<svg width="64" height="64" viewBox="0 0 64 64" fill="none" xmlns="http://www.w3.org/2000/svg">
<mask id="mask0_2_22177" style="mask-type:luminance" maskUnits="userSpaceOnUse" x="0" y="0" width="64" height="64">
<path d="M0 3.8147e-06H64V64H0V3.8147e-06Z" fill="white"/>
</mask>
<g mask="url(#mask0_2_22177)">
<path d="M40.6791 40.3955C42.7768 40.041 44.3889 38.205 44.3889 36.0073C44.3889 33.5614 42.387 31.5588 39.9776 31.5588H35.1128C32.6679 31.5588 30.666 29.5559 30.666 27.1065C30.666 24.6608 32.6679 22.6581 35.1128 22.6581H44.3889" stroke="#0055D2" stroke-width="1.5" stroke-miterlimit="10" stroke-linecap="round" stroke-linejoin="round"/>
<path d="M37.5292 18.3586L37.5186 22.6582" stroke="#0055D2" stroke-width="1.5" stroke-miterlimit="10" stroke-linecap="round" stroke-linejoin="round"/>
<path d="M11.1462 54.7974L20.9149 59.1786C23.2322 60.0293 26.6656 60.0754 34.9001 60.1179C41.5472 60.125 42.4153 60.125 43.6767 60.125C46.7557 60.125 47.9639 59.8379 49.4132 58.4059C53.4702 54.6556 57.5272 50.909 61.5878 47.1588C63.1362 45.7303 63.1362 43.3872 61.5878 41.9587C60.0394 40.5266 57.5024 40.5266 55.9539 41.9587L47.4254 49.8349C46.7203 50.4871 45.2747 50.6714 43.6908 50.6679C39.7827 50.6573 33.4934 50.6466 29.5852 50.6395C27.9164 50.6395 26.5522 49.3813 26.5522 47.8393C26.5522 46.2974 27.9164 45.0354 29.5852 45.0354H37.6673C39.5488 45.0354 41.0831 43.6176 41.0831 41.8808C41.0831 40.1474 39.5488 38.726 37.6673 38.726H17.8217C15.0863 38.726 12.6521 39.9915 11.1462 41.9233" stroke="#062D77" stroke-width="1.5" stroke-miterlimit="10" stroke-linecap="round" stroke-linejoin="round"/>
<path d="M11.1462 56.7715V39.9521C11.1462 38.3146 9.69712 36.9712 7.922 36.9712H4.47437C2.69912 36.9712 1.25 38.3146 1.25 39.9521V56.7715C1.25 58.4093 2.69912 59.749 4.47437 59.749H7.922C9.69712 59.749 11.1462 58.4093 11.1462 56.7715Z" stroke="#062D77" stroke-width="1.5" stroke-miterlimit="10" stroke-linecap="round" stroke-linejoin="round"/>
<path d="M51.2132 14.6117L51.2167 14.6152" stroke="#062D77" stroke-width="1.5" stroke-miterlimit="10" stroke-linecap="round" stroke-linejoin="round"/>
<path d="M18.6614 26.054C16.1881 24.5759 14.1756 22.077 12.6236 19.1845C11.0611 16.2708 10.2142 13.194 10.2391 10.291C10.2497 9.00442 10.5402 8.86255 11.6067 8.2883L19.7845 3.87517L27.9624 8.2883C29.0289 8.86255 29.3159 9.00442 29.3265 10.291C29.3549 13.194 28.5045 16.2708 26.9419 19.1845C25.39 22.077 23.3809 24.5759 20.9077 26.054C19.9156 26.646 19.6499 26.646 18.6614 26.054Z" stroke="#062D77" stroke-width="1.5" stroke-miterlimit="10" stroke-linecap="round" stroke-linejoin="round"/>
<path d="M16.9746 38.7688C16.1845 36.5109 15.7523 34.0863 15.7523 31.5589C15.7523 29.1698 16.1349 26.8729 16.847 24.7248M55.0893 18.6741C57.7396 22.2825 59.3021 26.7381 59.3021 31.5589C59.3021 35.0398 58.4836 38.3328 57.0309 41.25M29.298 11.3863C31.835 10.3478 34.6164 9.7735 37.529 9.7735C40.6718 9.7735 43.6623 10.4399 46.3623 11.6415" stroke="#062D77" stroke-width="1.5" stroke-miterlimit="10" stroke-linecap="round" stroke-linejoin="round"/>
<path d="M17.0847 14.8847L19.2319 16.8945L23.6822 12.329" stroke="#0055D2" stroke-width="1.5" stroke-miterlimit="10" stroke-linecap="round" stroke-linejoin="round"/>
</g>
</svg>
