<svg width="72" height="73" viewBox="0 0 72 73" fill="none" xmlns="http://www.w3.org/2000/svg">
<path d="M64.7999 60.5637H60.7636V31.5911C60.7636 30.2471 59.6596 29.1431 58.2916 29.1431H49.7236V9.46318C49.7236 8.11919 48.6196 7.01514 47.2756 7.01514H24.7397C23.3957 7.01514 22.2916 8.11919 22.2916 9.46318V29.1431H13.6996C12.3316 29.1431 11.2277 30.2471 11.2277 31.5911V60.5637H7.19993C5.87336 60.5637 4.79993 61.6371 4.79993 62.9637C4.79993 64.2902 5.87336 65.3637 7.19993 65.3637H64.7999C66.1265 65.3637 67.1999 64.2902 67.1999 62.9637C67.1999 61.6371 66.1265 60.5637 64.7999 60.5637ZM45.1397 38.4312C45.1397 37.8791 45.5957 37.4231 46.1476 37.4231H49.8436C50.3957 37.4231 50.8517 37.8791 50.8517 38.4312V42.1272C50.8517 42.6791 50.3957 43.1351 49.8436 43.1351H46.1476C45.5957 43.1351 45.1397 42.6791 45.1397 42.1272V38.4312ZM26.8517 54.1272C26.8517 54.6791 26.3957 55.1351 25.8436 55.1351H22.1476C21.5957 55.1351 21.1397 54.6791 21.1397 54.1272V50.4312C21.1397 49.8791 21.5957 49.4231 22.1476 49.4231H25.8436C26.3957 49.4231 26.8517 49.8791 26.8517 50.4312V54.1272ZM26.9957 42.2231C26.9957 42.7991 26.5156 43.2791 25.9397 43.2791H22.0517C21.4756 43.2791 20.9957 42.7991 20.9957 42.2231V38.3351C20.9957 37.7591 21.4756 37.2791 22.0517 37.2791H25.9397C26.5156 37.2791 26.9957 37.7591 26.9957 38.3351V42.2231ZM38.8756 54.1512C38.8756 54.7031 38.4196 55.1591 37.8676 55.1591H34.1236C33.5717 55.1591 33.1157 54.7031 33.1157 54.1512V50.4072C33.1157 49.8551 33.5717 49.3991 34.1236 49.3991H37.8676C38.4196 49.3991 38.8756 49.8551 38.8756 50.4072V54.1512ZM38.8756 42.1512C38.8756 42.7031 38.4196 43.1591 37.8676 43.1591H34.1236C33.5717 43.1591 33.1157 42.7031 33.1157 42.1512V38.4072C33.1157 37.8551 33.5717 37.3991 34.1236 37.3991H37.8676C38.4196 37.3991 38.8756 37.8551 38.8756 38.4072V42.1512ZM40.6996 21.4632H38.0356V24.1271C38.0356 25.4471 36.9556 26.5271 35.6356 26.5271C34.3157 26.5271 33.2356 25.4471 33.2356 24.1271V21.4632H30.5717C29.2517 21.4632 28.1717 20.3832 28.1717 19.0632C28.1717 17.7431 29.2517 16.6632 30.5717 16.6632H33.2356V13.9991C33.2356 12.6791 34.3157 11.5991 35.6356 11.5991C36.9556 11.5991 38.0356 12.6791 38.0356 13.9991V16.6632H40.6996C42.0196 16.6632 43.0996 17.7431 43.0996 19.0632C43.0996 20.3832 42.0196 21.4632 40.6996 21.4632ZM50.9957 54.2231C50.9957 54.7991 50.5157 55.2791 49.9397 55.2791H46.0517C45.4756 55.2791 44.9957 54.7991 44.9957 54.2231V50.3351C44.9957 49.7591 45.4756 49.2791 46.0517 49.2791H49.9397C50.5157 49.2791 50.9957 49.7591 50.9957 50.3351V54.2231Z" fill="url(#paint0_linear_2_22336)"/>
<defs>
<linearGradient id="paint0_linear_2_22336" x1="7.76194" y1="48.3981" x2="43.7236" y2="9.46375" gradientUnits="userSpaceOnUse">
<stop stop-color="#062D77"/>
<stop offset="1" stop-color="#0055CA"/>
</linearGradient>
</defs>
</svg>
