<svg width="73" height="73" viewBox="0 0 73 73" fill="none" xmlns="http://www.w3.org/2000/svg">
<path d="M36.5 6.18945C30.5666 6.18945 24.7664 7.94892 19.8329 11.2454C14.8994 14.5418 11.0543 19.2272 8.78363 24.709C6.513 30.1907 5.9189 36.2227 7.07646 42.0422C8.23401 47.8616 11.0912 53.2071 15.2868 57.4027C19.4824 61.5982 24.8279 64.4555 30.6473 65.613C36.4667 66.7706 42.4987 66.1765 47.9805 63.9058C53.4623 61.6352 58.1477 57.79 61.4441 52.8566C64.7405 47.9231 66.5 42.1229 66.5 36.1895C66.4909 28.2358 63.3273 20.6104 57.7032 14.9863C52.079 9.36218 44.4537 6.19855 36.5 6.18945ZM47.621 47.3105C47.3425 47.5891 47.0119 47.8101 46.6479 47.9609C46.284 48.1117 45.8939 48.1894 45.4999 48.1894C45.106 48.1894 44.7159 48.1117 44.3519 47.9609C43.988 47.8101 43.6573 47.5891 43.3788 47.3105L34.3788 38.3105C34.1002 38.032 33.8791 37.7014 33.7283 37.3374C33.5775 36.9735 33.5 36.5834 33.5 36.1895V18.1895C33.5 17.3938 33.8161 16.6307 34.3787 16.0681C34.9413 15.5055 35.7044 15.1895 36.5 15.1895C37.2957 15.1895 38.0587 15.5055 38.6213 16.0681C39.1839 16.6307 39.5 17.3938 39.5 18.1895V34.9473L47.621 43.0683C47.8997 43.3468 48.1207 43.6774 48.2715 44.0414C48.4223 44.4053 48.4999 44.7954 48.4999 45.1894C48.4999 45.5833 48.4223 45.9734 48.2715 46.3374C48.1207 46.7013 47.8997 47.032 47.621 47.3105Z" fill="url(#paint0_linear_2_22350)"/>
<defs>
<linearGradient id="paint0_linear_2_22350" x1="9.34809" y1="48.7437" x2="46.4415" y2="11.1915" gradientUnits="userSpaceOnUse">
<stop stop-color="#062D77"/>
<stop offset="1" stop-color="#0055CA"/>
</linearGradient>
</defs>
</svg>
