<svg width="36" height="36" viewBox="0 0 36 36" fill="none" xmlns="http://www.w3.org/2000/svg">
<g clip-path="url(#clip0_2_25066)">
<path d="M18.0018 -0.00195312C8.06223 -0.00195312 0.00183105 8.05844 0.00183105 17.998C0.00183105 27.9377 8.06223 35.998 18.0018 35.998C27.9414 35.998 36.0018 27.9377 36.0018 17.998C36.0018 8.05844 27.9414 -0.00195312 18.0018 -0.00195312ZM12.7712 27.209H8.38742V14.0202H12.7712V27.209ZM10.5795 12.2192H10.5509C9.07983 12.2192 8.12842 11.2066 8.12842 9.94095C8.12842 8.64676 9.10895 7.66211 10.6086 7.66211C12.1082 7.66211 13.0311 8.64676 13.0596 9.94095C13.0596 11.2066 12.1082 12.2192 10.5795 12.2192ZM28.5784 27.209H24.1951V20.1533C24.1951 18.3801 23.5604 17.1708 21.9742 17.1708C20.7632 17.1708 20.042 17.9865 19.725 18.774C19.6091 19.0558 19.5808 19.4496 19.5808 19.8438V27.209H15.1973C15.1973 27.209 15.2547 15.2575 15.1973 14.0202H19.5808V15.8876C20.1634 14.9889 21.2057 13.7106 23.5315 13.7106C26.4157 13.7106 28.5784 15.5956 28.5784 19.6465V27.209Z" fill="white"/>
</g>
<defs>
<clipPath id="clip0_2_25066">
<rect width="36" height="36" fill="white"/>
</clipPath>
</defs>
</svg>
