<svg width="73" height="73" viewBox="0 0 73 73" fill="none" xmlns="http://www.w3.org/2000/svg">
<path d="M61.39 14.8894C58.735 12.2298 55.2543 10.5523 51.5199 10.1325C47.7854 9.71269 44.0192 10.5756 40.84 12.5794L47.5 19.3594C47.766 19.6539 47.971 19.9982 48.1031 20.3724C48.2352 20.7466 48.2917 21.1433 48.2694 21.5395C48.247 21.9357 48.1463 22.3236 47.9731 22.6806C47.7998 23.0376 47.5574 23.3567 47.26 23.6194C46.7053 24.1086 45.9895 24.3757 45.25 24.3694C44.8263 24.3726 44.4067 24.2861 44.0189 24.1154C43.6311 23.9448 43.2838 23.694 43 23.3794L34.54 14.8894C33.3268 13.6774 31.9295 12.6648 30.4 11.8894C27.2792 10.2907 23.7328 9.71991 20.2681 10.2588C16.8033 10.7976 13.5978 12.4184 11.11 14.8894C7.99686 18.513 6.28516 23.1322 6.28516 27.9094C6.28516 32.6867 7.99686 37.3058 11.11 40.9294C16.69 46.9294 30.25 60.8194 36.34 60.8194C41.08 60.8194 50.38 52.3894 56.83 45.8194C58.45 44.1994 59.83 42.8194 61.03 41.4694L61.48 40.9894C64.5966 37.3509 66.3021 32.7136 66.2856 27.9227C66.2691 23.1318 64.5317 18.5064 61.39 14.8894ZM42.25 40.6894H39.25V43.6894C39.25 44.4851 38.9339 45.2481 38.3713 45.8107C37.8087 46.3733 37.0456 46.6894 36.25 46.6894C35.4543 46.6894 34.6912 46.3733 34.1286 45.8107C33.566 45.2481 33.25 44.4851 33.25 43.6894V40.6894H30.25C29.4543 40.6894 28.6912 40.3733 28.1286 39.8107C27.566 39.2481 27.25 38.4851 27.25 37.6894C27.25 36.8938 27.566 36.1307 28.1286 35.5681C28.6912 35.0055 29.4543 34.6894 30.25 34.6894H33.25V31.6894C33.25 30.8938 33.566 30.1307 34.1286 29.5681C34.6912 29.0055 35.4543 28.6894 36.25 28.6894C37.0456 28.6894 37.8087 29.0055 38.3713 29.5681C38.9339 30.1307 39.25 30.8938 39.25 31.6894V34.6894H42.25C43.0456 34.6894 43.8087 35.0055 44.3713 35.5681C44.9339 36.1307 45.25 36.8938 45.25 37.6894C45.25 38.4851 44.9339 39.2481 44.3713 39.8107C43.8087 40.3733 43.0456 40.6894 42.25 40.6894Z" fill="url(#paint0_linear_2_22356)"/>
<defs>
<linearGradient id="paint0_linear_2_22356" x1="9.13327" y1="46.0514" x2="40.0395" y2="9.08933" gradientUnits="userSpaceOnUse">
<stop stop-color="#062D77"/>
<stop offset="1" stop-color="#0055CA"/>
</linearGradient>
</defs>
</svg>
