<svg width="168" height="152" viewBox="0 0 168 152" fill="none" xmlns="http://www.w3.org/2000/svg">
<path d="M25.0023 125.208C25.0406 124.797 25.0924 124.476 25.0924 124.153C25.0969 119.691 25.0969 115.229 25.0924 110.769C25.0924 109.542 25.5884 108.61 26.7404 108.124C27.8879 107.645 28.9926 107.855 29.9891 108.551C30.4738 108.887 30.7308 109.416 30.7939 110.005C30.857 110.57 30.9156 111.132 30.9156 111.697C30.9269 114.894 30.9156 118.092 30.9202 121.294C30.9314 125.109 30.963 128.927 30.9743 132.742C30.9788 134.006 30.9855 135.271 30.9111 136.529C30.7082 140.174 29.6351 143.502 27.171 146.312C25.7417 147.94 24.008 149.146 22.0061 149.968C19.4924 151 16.8885 151.522 14.1516 151.336C11.5636 151.162 9.22119 150.313 7.03889 148.976C4.89492 147.664 3.13421 145.984 1.91681 143.778C1.01954 142.15 0.530329 140.39 0.24627 138.579C-0.132476 136.14 -0.105422 133.701 0.54611 131.305C1.51777 127.724 3.37994 124.725 6.63309 122.728C8.97996 121.285 11.5523 120.554 14.3365 120.475C18.1826 120.364 21.3095 121.882 24.0103 124.458C24.2177 124.652 24.4206 124.853 24.628 125.048C24.6821 125.077 24.761 125.097 25.0023 125.208ZM25.3494 136.371C25.2796 135.601 25.2435 134.833 25.1262 134.069C24.8061 132.005 23.963 130.172 22.4908 128.654C20.4257 126.527 17.8872 125.567 14.8934 125.757C10.9391 126.005 8.20894 128.001 6.55419 131.472C5.27817 134.144 5.33679 136.888 6.2814 139.663C7.66788 143.73 11.7822 146.565 16.1897 146.181C19.0821 145.928 21.4087 144.706 23.1514 142.398C24.5108 140.612 25.2052 138.595 25.3494 136.371Z" fill="white"/>
<path d="M144.472 137.993C144.53 138.905 144.738 139.646 145.069 140.353C146.755 143.973 149.621 145.946 153.627 146.326C156.208 146.568 158.6 145.974 160.807 144.646C161.639 144.144 162.462 143.697 163.497 143.74C164.671 143.788 166.137 145.036 165.972 146.342C165.902 146.879 165.715 147.333 165.321 147.701C164.11 148.839 162.69 149.634 161.127 150.192C159.074 150.924 156.955 151.351 154.772 151.346C150.915 151.346 147.441 150.165 144.379 147.848C141.295 145.515 139.609 142.374 139.135 138.598C138.73 135.38 139.002 132.214 140.283 129.199C141.996 125.179 145.015 122.555 149.224 121.254C151.235 120.633 153.284 120.333 155.397 120.516C158.571 120.796 161.346 121.995 163.673 124.136C166.148 126.406 167.451 129.278 167.882 132.548C168.015 133.56 168.01 134.596 167.988 135.624C167.961 136.9 167.043 137.805 165.767 137.873C164.701 137.932 163.632 137.972 162.566 137.979C156.869 137.991 151.174 137.984 145.477 137.984C145.166 137.993 144.855 137.993 144.472 137.993ZM144.584 133.273C150.581 133.273 156.535 133.273 162.505 133.273C162.521 133.126 162.537 133.025 162.537 132.925C162.532 132.799 162.521 132.668 162.498 132.541C161.799 128.937 159.757 126.573 156.069 125.692C152.216 124.771 147.783 126.487 145.691 129.755C145.015 130.809 144.605 131.952 144.584 133.273Z" fill="white"/>
<path d="M109.341 137.993C109.677 139.91 110.43 141.495 111.582 142.902C113.178 144.847 115.311 145.82 117.754 146.226C120.78 146.728 123.548 146.037 126.109 144.424C126.754 144.018 127.417 143.713 128.222 143.745C129.182 143.781 129.935 144.187 130.501 144.914C131.211 145.82 130.97 147.136 129.989 147.954C128.404 149.266 126.585 150.144 124.601 150.677C122.599 151.215 120.545 151.452 118.48 151.298C113.85 150.951 109.938 149.097 106.94 145.551C105.387 143.713 104.512 141.536 104.14 139.176C103.639 136.021 103.831 132.902 104.94 129.894C106.599 125.391 109.828 122.494 114.474 121.159C117.222 120.374 120.002 120.184 122.802 120.954C124.82 121.512 126.621 122.465 128.213 123.808C130.828 126.022 132.25 128.88 132.753 132.205C132.909 133.216 132.913 134.253 132.929 135.28C132.956 137.13 131.734 137.909 130.262 137.909C123.578 137.905 116.891 137.957 110.211 137.993C109.954 137.993 109.697 137.993 109.341 137.993ZM127.351 133.277C127.379 133.146 127.41 133.052 127.415 132.95C127.419 132.796 127.419 132.638 127.394 132.487C127.09 130.448 126.199 128.725 124.561 127.408C122.351 125.638 119.84 125.096 117.076 125.617C113.949 126.207 111.496 127.72 110.15 130.68C109.783 131.491 109.413 132.313 109.553 133.273C115.509 133.277 121.42 133.277 127.351 133.277Z" fill="white"/>
<path d="M68.948 135.543C68.8894 140.409 67.4375 144.172 64.3445 147.254C62.3606 149.23 59.8852 150.346 57.1528 150.937C53.2729 151.775 49.5328 151.416 45.9798 149.616C41.7212 147.457 39.2458 143.975 38.3125 139.382C37.6249 135.983 37.8638 132.666 39.2526 129.461C41.4461 124.398 45.3937 121.611 50.8471 120.796C51.5934 120.685 52.3463 120.559 53.0926 120.543C53.8929 120.527 54.7045 120.602 55.498 120.69C58.1335 120.99 60.5773 121.817 62.7393 123.377C65.8707 125.638 67.8186 128.655 68.5445 132.417C68.7767 133.625 68.8624 134.858 68.948 135.543ZM43.6217 135.048C43.6217 137.997 44.1447 140.159 45.1795 141.701C47.4091 145.03 50.5834 146.527 54.5963 146.148C57.2633 145.899 59.4839 144.716 61.1048 142.582C62.9828 140.111 63.5689 137.297 63.1541 134.264C62.8453 132.004 61.948 130.028 60.2729 128.406C55.6784 123.955 49.1428 125.283 45.7972 129.265C44.2191 131.146 43.6848 133.404 43.6217 135.048Z" fill="white"/>
<path d="M82.4183 146.02C82.8218 146.02 83.1036 146.02 83.3832 146.02C87.502 146.02 91.6141 146.016 95.733 146.025C96.2831 146.025 96.8377 146.088 97.3832 146.174C98.2557 146.312 98.9568 146.946 99.0763 147.802C99.1575 148.41 99.1462 149.053 99.038 149.661C98.8712 150.607 98.1926 151.124 97.2547 151.305C96.9955 151.352 96.7317 151.359 96.4679 151.359C90.027 151.363 83.5906 151.348 77.1497 151.375C76.0991 151.379 75.0215 150.81 74.6495 149.814C74.3857 149.107 74.379 148.378 74.6811 147.691C74.9178 147.149 75.2041 146.605 75.5648 146.131C79.6498 140.765 83.7574 135.413 87.8537 130.059C88.645 129.02 89.4431 127.983 90.2299 126.945C90.3967 126.721 90.5365 126.482 90.7732 126.125C90.3629 126.125 90.0879 126.125 89.8083 126.125C85.5069 126.125 81.2054 126.129 76.9039 126.12C76.4621 126.12 76.0089 126.057 75.5783 125.955C74.7058 125.743 74.14 125.19 74.016 124.296C73.9461 123.785 73.9078 123.248 73.9934 122.746C74.1918 121.565 74.9899 120.922 76.2524 120.847C76.8836 120.809 77.5194 120.789 78.1506 120.789C83.7191 120.784 89.2875 120.784 94.856 120.789C95.3024 120.789 95.751 120.836 96.1974 120.836C98.0889 120.825 98.79 122.523 98.5803 123.912C98.4676 124.673 98.1002 125.339 97.6312 125.951C95.8953 128.214 94.1594 130.474 92.4347 132.742C89.2537 136.919 86.0795 141.109 82.9052 145.291C82.7587 145.478 82.6347 145.695 82.4183 146.02Z" fill="white"/>
<path d="M94.9507 58.1331C88.5864 58.316 83.922 62.932 83.0901 69.8717C82.2244 77.0959 87.732 83.6111 94.9732 83.9272C101.716 84.2231 107.384 78.3538 107.388 71.0753C107.393 63.6049 101.944 57.9321 94.9507 58.1331Z" fill="white"/>
<path d="M77.2173 0C48.1621 0 24.6077 23.5945 24.6077 52.6993C24.6077 81.8041 48.1621 105.399 77.2173 105.399H129.827V52.697C129.827 23.5923 106.272 0 77.2173 0ZM114.075 69.93C114.059 74.5346 113.205 78.988 110.299 82.6757C105.326 88.9854 98.6209 91.0201 90.9288 89.5138C83.4328 88.0459 78.0898 82.3506 76.8025 74.7718C75.6662 68.0872 76.8386 61.9086 81.7532 56.9245C88.4309 50.1542 98.9072 50.1881 105.662 56.8613C105.977 57.173 106.315 57.4598 106.994 58.0785C107.05 57.1346 107.109 56.6152 107.109 56.0958C107.116 50.712 107.089 45.326 107.125 39.9423C107.143 37.3068 108.994 35.8299 111.446 36.39C112.889 36.7174 113.719 37.6207 113.886 39.1383C113.994 40.1342 114.073 41.1391 114.073 42.1396C114.091 51.403 114.107 60.6665 114.075 69.93Z" fill="white"/>
</svg>
