<svg width="112" height="102" viewBox="0 0 112 102" fill="none" xmlns="http://www.w3.org/2000/svg">
<path d="M16.6682 84.0138C16.6937 83.7398 16.7283 83.5261 16.7283 83.3108C16.7313 80.3358 16.7313 77.3609 16.7283 74.3875C16.7283 73.57 17.0589 72.9482 17.827 72.6246C18.592 72.3054 19.3284 72.4454 19.9927 72.9091C20.3158 73.1334 20.4872 73.4857 20.5293 73.8787C20.5714 74.255 20.6104 74.6299 20.6104 75.0063C20.6179 77.1381 20.6104 79.2699 20.6134 81.4048C20.621 83.9476 20.642 86.4934 20.6495 89.0363C20.6525 89.8793 20.657 90.7224 20.6074 91.561C20.4722 93.9909 19.7568 96.2101 18.114 98.0829C17.1611 99.1684 16.0054 99.9724 14.6707 100.52C12.9949 101.208 11.259 101.556 9.43443 101.433C7.70903 101.317 6.14746 100.751 4.69259 99.8595C3.26328 98.9847 2.08947 97.8646 1.27787 96.3937C0.679695 95.3083 0.353553 94.1355 0.16418 92.928C-0.0883173 91.3021 -0.0702815 89.6761 0.364074 88.0787C1.01185 85.691 2.25329 83.6917 4.42206 82.3608C5.98664 81.3987 7.70152 80.911 9.55767 80.8583C12.1217 80.7845 14.2063 81.7962 16.0069 83.514C16.1451 83.6435 16.2804 83.7775 16.4187 83.9069C16.4548 83.9265 16.5074 83.9401 16.6682 84.0138ZM16.8996 91.4556C16.853 90.9422 16.829 90.4304 16.7508 89.9215C16.5374 88.5455 15.9753 87.323 14.9939 86.3113C13.6172 84.8931 11.9248 84.2532 9.9289 84.3797C7.29271 84.5453 5.47263 85.8762 4.36946 88.1902C3.51878 89.9712 3.55786 91.8004 4.1876 93.6507C5.11192 96.3621 7.85482 98.2516 10.7931 97.9956C12.7214 97.827 14.2725 97.0125 15.4342 95.4739C16.3405 94.283 16.8034 92.9386 16.8996 91.4556Z" fill="#0055D2"/>
<path d="M96.3145 92.5366C96.3535 93.1448 96.4918 93.6386 96.7127 94.1099C97.837 96.5232 99.7472 97.839 102.418 98.092C104.139 98.2531 105.734 97.8571 107.205 96.9719C107.759 96.6376 108.308 96.3395 108.998 96.3681C109.781 96.3998 110.758 97.2323 110.648 98.1025C110.602 98.4608 110.477 98.7634 110.214 99.0088C109.407 99.7676 108.46 100.298 107.418 100.669C106.049 101.157 104.636 101.442 103.181 101.439C100.61 101.439 98.2939 100.651 96.2528 99.1067C94.1968 97.5515 93.0726 95.4573 92.757 92.9401C92.4864 90.7947 92.6683 88.684 93.522 86.6741C94.6642 83.9943 96.6767 82.2448 99.4827 81.3777C100.823 80.9636 102.19 80.7634 103.598 80.8854C105.714 81.0721 107.564 81.8715 109.115 83.2987C110.765 84.8118 111.634 86.7268 111.921 88.9068C112.01 89.5813 112.007 90.2723 111.992 90.9573C111.974 91.8079 111.362 92.4116 110.511 92.4568C109.801 92.4959 109.088 92.523 108.377 92.5276C104.579 92.5351 100.783 92.5306 96.9848 92.5306C96.7774 92.5366 96.57 92.5366 96.3145 92.5366ZM96.3896 89.3901C100.387 89.3901 104.357 89.3901 108.337 89.3901C108.347 89.2922 108.358 89.2244 108.358 89.1582C108.355 89.0739 108.347 88.9866 108.332 88.9023C107.866 86.4995 106.505 84.9232 104.046 84.336C101.477 83.7218 98.5223 84.866 97.1276 87.0445C96.6767 87.7475 96.4031 88.5093 96.3896 89.3901Z" fill="#0055D2"/>
<path d="M72.8939 92.5366C73.1178 93.8148 73.6198 94.8717 74.3878 95.8096C75.4519 97.1059 76.8737 97.7547 78.5029 98.0257C80.5199 98.36 82.3655 97.8993 84.0729 96.8243C84.5027 96.5533 84.9446 96.3501 85.4811 96.3712C86.1214 96.3953 86.6234 96.6663 87.0006 97.151C87.4741 97.7547 87.3132 98.6325 86.6595 99.1775C85.6029 100.052 84.39 100.638 83.0674 100.993C81.7328 101.351 80.3636 101.51 78.9869 101.407C75.8998 101.175 73.2921 99.9393 71.2932 97.5756C70.2577 96.3501 69.6745 94.8988 69.4265 93.3255C69.0929 91.2223 69.2206 89.1432 69.9601 87.1378C71.0663 84.1358 73.2185 82.2042 76.3161 81.3144C78.1482 80.7905 80.0013 80.6641 81.868 81.1774C83.2132 81.5493 84.414 82.1846 85.4751 83.0804C87.2186 84.5558 88.1669 86.4618 88.5021 88.6779C88.6058 89.3524 88.6088 90.0435 88.6193 90.7285C88.6373 91.9615 87.8228 92.4809 86.8413 92.4809C82.385 92.4779 77.9273 92.5125 73.474 92.5366C73.3027 92.5366 73.1313 92.5366 72.8939 92.5366ZM84.901 89.3931C84.919 89.3058 84.9401 89.2425 84.9431 89.1748C84.9461 89.0724 84.9461 88.967 84.9296 88.8661C84.7267 87.5067 84.133 86.3579 83.0403 85.4802C81.5674 84.2999 79.8931 83.9386 78.0505 84.2863C75.9659 84.6793 74.3307 85.688 73.4334 87.6617C73.1884 88.2022 72.9419 88.7502 73.0351 89.3901C77.006 89.3931 80.9467 89.3931 84.901 89.3931Z" fill="#0055D2"/>
<path d="M45.9653 90.9031C45.9263 94.1475 44.9584 96.6557 42.8963 98.7107C41.5737 100.028 39.9235 100.772 38.1019 101.166C35.5153 101.725 33.0219 101.485 30.6532 100.286C27.8141 98.8462 26.1639 96.5247 25.5416 93.4625C25.0832 91.1967 25.2425 88.9851 26.1684 86.8487C27.6308 83.4734 30.2624 81.6155 33.8981 81.072C34.3956 80.9983 34.8976 80.914 35.395 80.9034C35.9286 80.8929 36.4697 80.9426 36.9987 81.0013C38.7557 81.2015 40.3849 81.7525 41.8262 82.7929C43.9138 84.2999 45.2124 86.3113 45.6963 88.8195C45.8511 89.6249 45.9082 90.4469 45.9653 90.9031ZM29.0811 90.5734C29.0811 92.5396 29.4298 93.9804 30.1197 95.0087C31.6061 97.2278 33.7222 98.226 36.3975 97.973C38.1755 97.8074 39.6559 97.0185 40.7366 95.5958C41.9885 93.9488 42.3793 92.0729 42.1027 90.051C41.8968 88.5439 41.2987 87.2266 40.182 86.1456C37.1189 83.1783 32.7619 84.0635 30.5315 86.7178C29.4794 87.9719 29.1232 89.4774 29.0811 90.5734Z" fill="#0055D2"/>
<path d="M54.9455 97.8887C55.2145 97.8887 55.4024 97.8887 55.5888 97.8887C58.3347 97.8887 61.0761 97.8857 63.822 97.8917C64.1887 97.8917 64.5584 97.9339 64.9221 97.9911C65.5038 98.0829 65.9712 98.506 66.0509 99.0766C66.105 99.4816 66.0975 99.9106 66.0253 100.316C65.9141 100.946 65.4617 101.291 64.8365 101.412C64.6636 101.443 64.4878 101.448 64.3119 101.448C60.018 101.451 55.727 101.44 51.4331 101.458C50.7327 101.461 50.0143 101.082 49.7663 100.418C49.5905 99.9468 49.586 99.4605 49.7874 99.0028C49.9452 98.6415 50.136 98.2787 50.3765 97.9625C53.0999 94.3854 55.8383 90.8173 58.5691 87.2477C59.0967 86.5551 59.6287 85.8641 60.1533 85.1716C60.2645 85.0225 60.3577 84.8629 60.5155 84.6251C60.2419 84.6251 60.0586 84.6251 59.8722 84.6251C57.0046 84.6251 54.1369 84.6281 51.2693 84.6221C50.9747 84.6221 50.6726 84.5799 50.3855 84.5122C49.8039 84.3706 49.4266 84.0018 49.344 83.4056C49.2974 83.0654 49.2718 82.707 49.329 82.3728C49.4612 81.5854 49.9933 81.1563 50.8349 81.1067C51.2557 81.0811 51.6796 81.0675 52.1004 81.0675C55.8127 81.0645 59.525 81.0645 63.2373 81.0675C63.5349 81.0675 63.834 81.0991 64.1316 81.0991C65.3926 81.0916 65.86 82.2238 65.7202 83.1497C65.6451 83.657 65.4001 84.1011 65.0875 84.5091C63.9302 86.0177 62.7729 87.5247 61.6232 89.0362C59.5025 91.8215 57.3863 94.6142 55.2701 97.4024C55.1725 97.5274 55.0898 97.6719 54.9455 97.8887Z" fill="#0055D2"/>
<path d="M63.3005 39.2968C59.0576 39.4188 55.948 42.4961 55.3934 47.1225C54.8163 51.9387 58.488 56.2821 63.3155 56.4929C67.8108 56.6901 71.5893 52.7773 71.5923 47.925C71.5953 42.9447 67.9627 39.1628 63.3005 39.2968Z" fill="#0055D2"/>
<path d="M51.4782 0.541668C32.1081 0.541668 16.4052 16.2714 16.4052 35.6745C16.4052 55.0777 32.1081 70.8074 51.4782 70.8074H86.5512V35.673C86.5512 16.2699 70.8483 0.541668 51.4782 0.541668ZM76.0501 47.1617C76.0395 50.2314 75.4699 53.2003 73.5326 55.6588C70.2171 59.8653 65.7473 61.2217 60.6192 60.2176C55.6218 59.239 52.0598 55.442 51.2017 50.3895C50.4442 45.9332 51.2257 41.8141 54.5021 38.4914C58.9539 33.9778 65.9382 34.0004 70.441 38.4492C70.6514 38.657 70.8769 38.8482 71.3293 39.2607C71.3668 38.6314 71.4059 38.2851 71.4059 37.9388C71.4104 34.3497 71.3924 30.759 71.4164 27.1698C71.4285 25.4129 72.6624 24.4283 74.2976 24.8017C75.2595 25.02 75.8126 25.6222 75.9238 26.6339C75.996 27.2978 76.0486 27.9678 76.0486 28.6347C76.0606 34.8104 76.0711 40.986 76.0501 47.1617Z" fill="#0055D2"/>
</svg>
