<svg width="36" height="36" viewBox="0 0 36 36" fill="none" xmlns="http://www.w3.org/2000/svg">
<path d="M18 0C27.9408 0 36 8.05925 36 18C36 27.9407 27.9408 36 18 36C8.05923 36 2.70518e-05 27.9407 0 18C0 8.05925 8.05922 1.23827e-07 18 0ZM15.7334 19.1758L7.65234 28.5684H9.47852L16.5439 20.3555L22.1875 28.5684H28.3506L19.9697 16.3721L27.6758 7.41504H25.8506L19.1592 15.1924L13.8154 7.41504H7.65234L15.7334 19.1758ZM25.8506 27.2568H23.0459L10.1357 8.79004H12.9404L25.8506 27.2568Z" fill="white"/>
</svg>
